<svg id="Capa_1" data-name="Capa 1" xmlns="http://www.w3.org/2000/svg" viewBox="0 0 180.08 39.93"><defs><style>.cls-1{fill:#01003f;}.cls-2{fill:#ff0e00;}</style></defs><title>logo_inicial</title><path class="cls-1" d="M61.3,27,56.5,14.5c-.1-.3-.3-.4-.7-.4h-2a.67.67,0,0,0-.7.5L48.4,27.2v.2a.27.27,0,0,0,.3.3h2.2c.4,0,.5-.2.6-.5l.8-2.4h4.9l.8,2.3a.78.78,0,0,0,.8.6H61a.37.37,0,0,0,.4-.4A.37.37,0,0,1,61.3,27Zm-8.2-4.5,1.2-3.9c.1-.4.3-.8.4-1.2h0a3.58,3.58,0,0,0,.4,1.1h0l1.2,3.9H53.1Z" transform="translate(-2.62 -0.54)"/><path class="cls-1" d="M69.1,27.7h1.8a.53.53,0,0,0,.6-.6V21.3c0-2.1-.9-3.5-3.1-3.5a4.89,4.89,0,0,0-3.1,1.1v-.4c0-.3-.3-.4-.5-.4H63a.53.53,0,0,0-.6.6v8.5c0,.4.2.5.6.5h1.8a.53.53,0,0,0,.6-.6V21.2a3.18,3.18,0,0,1,2-.8c.9,0,1.1.5,1.1,1.4V27C68.5,27.5,68.7,27.7,69.1,27.7Z" transform="translate(-2.62 -0.54)"/><path class="cls-1" d="M77.4,29.7a6.31,6.31,0,0,1-2.2-.5c-.1-.1-.2-.1-.4-.1s-.2.1-.3.4l-.3,1.1c0,.1-.1.2-.1.3s.1.3.4.4a8,8,0,0,0,3,.6c3.4,0,4.8-1.8,4.8-5.1V18.5c0-.4-.1-.6-.5-.6H80.1c-.3,0-.5.1-.5.4v.4a3.45,3.45,0,0,0-.9-.8,3.08,3.08,0,0,0-1.3-.3c-2.9,0-4.4,2.6-4.4,5.2a4.6,4.6,0,0,0,1.3,3.5,4,4,0,0,0,2.9,1.1,4.17,4.17,0,0,0,2.4-.9v.7C79.4,28.8,79.2,29.7,77.4,29.7Zm.4-4.4a1.75,1.75,0,0,1-1.2-.4,2.88,2.88,0,0,1-.7-2,3.14,3.14,0,0,1,.7-2.1,1.66,1.66,0,0,1,1.2-.5,2.29,2.29,0,0,1,1.5.6v3.7A1.81,1.81,0,0,1,77.8,25.3Z" transform="translate(-2.62 -0.54)"/><path class="cls-1" d="M182.7,27.1V21.3c0-2.1-.9-3.5-3.1-3.5a4.89,4.89,0,0,0-3.1,1.1v-.4c0-.3-.3-.4-.6-.4h-1.6a.53.53,0,0,0-.6.6v8.5c0,.4.2.5.6.5h1.9c.4,0,.5-.2.5-.6V21.2a3.41,3.41,0,0,1,2-.8c.9,0,1.1.5,1.1,1.4V27a.53.53,0,0,0,.6.6h1.8C182.5,27.7,182.7,27.5,182.7,27.1Z" transform="translate(-2.62 -0.54)"/><path class="cls-1" d="M170.7,18.1H169a.66.66,0,0,0-.5.4l-.1.4a2.9,2.9,0,0,0-2.4-1.1c-2.2,0-4.3,1.8-4.3,5.3,0,2.6,1.3,4.9,4.1,4.9a4.49,4.49,0,0,0,2.8-1.2h0c.3.6.7.9,1.9.9h1a.47.47,0,0,0,.5-.5V26.1c0-.3-.1-.4-.4-.4h-.2a.27.27,0,0,1-.3-.3V18.6C171.2,18.3,171,18.1,170.7,18.1Zm-2.4,6.6a2.23,2.23,0,0,1-1.6.8c-1.5,0-1.8-1.5-1.8-2.7,0-1.8.9-2.6,1.9-2.6a2.36,2.36,0,0,1,1.6.7v3.8Z" transform="translate(-2.62 -0.54)"/><path class="cls-2" d="M28.32,22.64c-.9.6-1.9.8-2.7,1.3-1,.5-2.3,1.2-2.6,1s-.1-.4,0-.7c.5-1.3.5-2.8,1.3-4,.4-.7.8-2.2,1.1-2.2.5,0,1.9,1.5,2.6,2.7C28.22,21.34,28.92,22,28.32,22.64Zm-.8-6.7c-1-1-2.6-2.8-3.2-2.4s-1,2.2-1.4,3.3a45.15,45.15,0,0,0-1.7,5.2c-.1.6-.4,1.4-.4,1.7s-.3,1.1-.4,1.4-.5,1.7-.2,2.1.8.2,1.2.1c1.3-.3,2.1-.7,3.4-1,.2-.1.5-.1.7-.2.9-.3,1.7-.9,2.6-1.3,1.2-.7,3.4-.9,3.5-2.8C31.22,19.54,29,17.94,27.52,15.94Z" transform="translate(-2.62 -0.54)"/><path class="cls-1" d="M32.52,13.34c-2.2-3-5.4-4.7-8.4-6.5-.6-.3-1.5-.8-1.9-.7s-.5.5-.7.7c-.8,1.9-1.8,3.7-2.7,5.5-1,2.8-1.7,5.7-2.6,8.5-1.3,2.9-2.7,6.1-2.4,9.4.1,1.3.2,2.8,1.3,3.6a9.64,9.64,0,0,0,4.8,1c4.1-.4,8.4-.4,11.8-2.7.2-.1,2.5-2.1,3.8-3.1.8-.7,1.9-1.5,2-2.6a23.88,23.88,0,0,0-1.1-6.4C35.92,17.44,34,15.44,32.52,13.34Zm.4,13.5c-4,3-8.2,5.5-13.1,6.2a2.36,2.36,0,0,1-2-.9c-1.5-2.7.1-5.7.3-8.5a23.49,23.49,0,0,1,1.4-3.7l3.4-7.6a7.64,7.64,0,0,1,1.9-2.8c.6-.3,1.6.8,2.3,1.4L28,12c1.2,1.7,2.4,3.5,3.6,5.2a25.47,25.47,0,0,1,2.7,5.8A4.1,4.1,0,0,1,32.92,26.84Z" transform="translate(-2.62 -0.54)"/><path class="cls-1" d="M40.62,12.44A25.75,25.75,0,0,0,31,4.34a23.14,23.14,0,0,0-7.5-3.4c-.5-.1-2.1-.3-3.1-.4-2.7,0-4.7,2.3-6,4.5-1.7,3.4-2.5,7.1-4.3,10.5,0,.2-.1.3-.2.5a82.63,82.63,0,0,1-5.1,9.2c-1,1.8-2.1,3.7-2.2,5.9.2,2.2.6,4.6,2.7,6a19.66,19.66,0,0,0,6.1,2.3,14.74,14.74,0,0,1,3.5.8,25.5,25.5,0,0,0,8.7-.4c3.2-.4,6.9.2,9.9-1,2.5-1.2,5.2-2.1,7.5-3.9,1.3-1.5,3.3-2.8,4.1-4.7.8-3.3-.5-6.5-1.7-9.4C41.72,18.34,41.82,15.14,40.62,12.44Zm.2,14.9h0c-2.1,3.8-6.2,4.9-9.5,6.9-3.4,1.7-7.4,2.3-11,3.6-1.3.6-2.9.2-4.3.3a8.5,8.5,0,0,1-4.3-1.7c-1.9-2.3-2-6.1-1.2-9,.5-1.6.6-3.5,1.4-5,2.4-5,4-10.1,6.9-14.9.7-1.3.9-3.5,2.6-4a3.63,3.63,0,0,1,1.9-.1,20.61,20.61,0,0,1,4.5,2.5,98.82,98.82,0,0,1,10.6,11.9,39.72,39.72,0,0,1,2,3.5,14.62,14.62,0,0,1,.5,2C41.12,24.14,41.82,26.24,40.82,27.34Z" transform="translate(-2.62 -0.54)"/><path class="cls-1" d="M126.1,27.7h1.8a.53.53,0,0,0,.6-.6V22.6a6.85,6.85,0,0,0-.4-3.1,3.1,3.1,0,0,0-2.9-1.7,4.84,4.84,0,0,0-3.4,1.3,2.6,2.6,0,0,0-2.5-1.3,4.3,4.3,0,0,0-2.8,1.1v-.4c0-.3-.2-.4-.6-.4h-1.6a.56.56,0,0,0-.6.5v8.5a.53.53,0,0,0,.6.6h1.8a.53.53,0,0,0,.6-.6V21.2a2.73,2.73,0,0,1,1.9-.8c.9,0,1.1.6,1.1,1.4v5.3a.53.53,0,0,0,.6.6h1.6a.53.53,0,0,0,.6-.6V21.2a3,3,0,0,1,2-.8c.9,0,1.1.6,1.1,1.4v5.3C125.5,27.6,125.7,27.7,126.1,27.7Z" transform="translate(-2.62 -0.54)"/><path class="cls-1" d="M149.8,14a1.5,1.5,0,1,0,0,3,1.62,1.62,0,0,0,1.6-1.5A1.49,1.49,0,0,0,149.8,14Z" transform="translate(-2.62 -0.54)"/><path class="cls-1" d="M102.2,27.7c.4,0,.5-.2.6-.5l.8-2.4h4.9l.8,2.3a.78.78,0,0,0,.8.6h2.2a.43.43,0,0,0,.3-.7l-4.8-12.5c-.1-.3-.3-.4-.7-.4h-2a.67.67,0,0,0-.7.5L99.7,27.2v.2a.27.27,0,0,0,.3.3Zm3.5-9.1c.1-.4.3-.8.4-1.2h0a3.58,3.58,0,0,0,.4,1.1l1.2,3.9h-3.2Z" transform="translate(-2.62 -0.54)"/><path class="cls-1" d="M143.4,27.7a.53.53,0,0,0,.6-.6V21.2a2.69,2.69,0,0,1,1.8-.8.75.75,0,0,1,.5.1h.1a.27.27,0,0,0,.3-.3l.3-1.9v-.2h0c0-.1-.1-.2-.2-.3s-.4-.1-.6-.1a2.76,2.76,0,0,0-2.5,1.3v-.6c0-.3-.2-.4-.6-.4h-1.6a.53.53,0,0,0-.6.6v8.5a.53.53,0,0,0,.6.6Z" transform="translate(-2.62 -0.54)"/><path class="cls-1" d="M87,27.7c.3,0,.5-.2.5-.6v-13c0-.3-.1-.5-.4-.5h-.2l-1.9.2a.47.47,0,0,0-.5.5V27.1c0,.4.2.5.5.5h2Z" transform="translate(-2.62 -0.54)"/><path class="cls-1" d="M139.3,23.1v-.3a5.27,5.27,0,0,0-1.2-3.8,4.06,4.06,0,0,0-3.1-1.3,4.83,4.83,0,0,0-5.1,5.1,4.78,4.78,0,0,0,5.1,5.1,9.22,9.22,0,0,0,3.6-.7c.2-.1.4-.2.4-.4a8.33,8.33,0,0,0-.4-1.5.27.27,0,0,0-.3-.3c-.1,0-.2,0-.2.1a7,7,0,0,1-2.5.5,2.4,2.4,0,0,1-2.5-1.9h5.5C139.1,23.7,139.3,23.6,139.3,23.1Zm-6.2-1.3a1.84,1.84,0,0,1,1.8-1.7,1.58,1.58,0,0,1,1.5,1.7Z" transform="translate(-2.62 -0.54)"/><path class="cls-1" d="M158.4,20.2a4.71,4.71,0,0,1,1.7.4c.1,0,.2.1.3.1s.2-.1.3-.3L161,19v-.2c0-.2-.1-.3-.3-.4a6.46,6.46,0,0,0-2.7-.5c-3.1,0-5,2-5,5.2s1.8,4.9,4.8,4.9a6,6,0,0,0,3-.6h0c.2-.1.3-.1.3-.4a12.44,12.44,0,0,0-.4-1.6.32.32,0,0,0-.3-.3c-.1,0-.1,0-.2.1a4.21,4.21,0,0,1-2,.4c-1.4,0-2.2-1-2.2-2.8C156.1,21.2,156.9,20.2,158.4,20.2Z" transform="translate(-2.62 -0.54)"/><path class="cls-1" d="M99,22.9c0-2.9-1.6-5.1-4.9-5.1a4.67,4.67,0,0,0-5,5c0,2.9,1.6,5.1,4.9,5.1S99,25.8,99,22.9Zm-6.9,0c0-1.4.5-2.7,1.9-2.7s1.9,1.3,1.9,2.7-.5,2.7-1.9,2.7S92.1,24.3,92.1,22.9Z" transform="translate(-2.62 -0.54)"/><path class="cls-1" d="M149,18.1c-.4,0-.6.1-.6.5v8.5a.53.53,0,0,0,.6.6h1.8a.53.53,0,0,0,.6-.6V18.6c0-.4-.2-.5-.6-.5Z" transform="translate(-2.62 -0.54)"/></svg>